<?xml version="1.0" encoding="utf-8"?>
<!-- Generator: Adobe Illustrator 14.0.0, SVG Export Plug-In . SVG Version: 6.00 Build 43363)  -->
<!DOCTYPE svg PUBLIC "-//W3C//DTD SVG 1.0//EN" "http://www.w3.org/TR/2001/REC-SVG-20010904/DTD/svg10.dtd">
<svg version="1.0" id="Calque_1" xmlns="http://www.w3.org/2000/svg" xmlns:xlink="http://www.w3.org/1999/xlink" x="0px" y="0px"
	 width="150px" height="56.69px" viewBox="0 0 150 56.69" enable-background="new 0 0 150 56.69" xml:space="preserve">
<g>
	<rect x="1.62" y="41.895" fill="#FFFFFF" width="2.158" height="10.746"/>
	<polygon fill="#FFFFFF" points="6.241,41.895 8.887,41.895 12.985,49.932 13.013,49.932 13.013,41.895 15.078,41.895 
		15.078,52.641 12.446,52.641 8.334,44.604 8.306,44.604 8.306,52.641 6.241,52.641 	"/>
	<polygon fill="#FFFFFF" points="16.631,41.895 18.939,41.895 21.696,50.332 21.73,50.332 24.451,41.895 26.592,41.895 
		22.972,52.641 20.328,52.641 	"/>
	<polygon fill="#FFFFFF" points="28.254,41.895 34.595,41.895 34.595,43.589 30.412,43.589 30.412,46.238 34.242,46.238 
		34.242,47.933 30.412,47.933 30.412,50.947 34.628,50.947 34.628,52.641 28.254,52.641 	"/>
	<g>
		<defs>
			<rect id="SVGID_1_" x="0" y="1.504" width="150" height="53.426"/>
		</defs>
		<clipPath id="SVGID_2_">
			<use xlink:href="#SVGID_1_"  overflow="visible"/>
		</clipPath>
		<path clip-path="url(#SVGID_2_)" fill="#FFFFFF" d="M42.848,43.866c-0.678-0.294-1.43-0.464-2.186-0.464
			c-0.74,0-1.694,0.325-1.694,1.495c0,1.86,4.713,1.075,4.713,4.677c0,2.356-1.865,3.253-4.035,3.253
			c-1.17,0-1.694-0.154-2.759-0.42l0.204-1.94c0.74,0.401,1.585,0.667,2.434,0.667c0.812,0,1.904-0.421,1.904-1.389
			c0-2.047-4.708-1.202-4.708-4.756c0-2.404,1.86-3.277,3.758-3.277c0.922,0,1.783,0.123,2.567,0.381L42.848,43.866z"/>
		<polygon clip-path="url(#SVGID_2_)" fill="#FFFFFF" points="47.85,43.589 44.772,43.589 44.772,41.895 53.083,41.895 
			53.083,43.589 50.008,43.589 50.008,52.637 47.85,52.637 		"/>
		<path clip-path="url(#SVGID_2_)" fill="#FFFFFF" d="M59.227,51.13c2.202,0,3.019-1.952,3.019-3.896
			c0-1.893-0.877-3.828-3.019-3.828c-2.14,0-3.017,1.936-3.017,3.828C56.21,49.178,57.025,51.13,59.227,51.13 M59.227,41.712
			c3.372,0,5.266,2.277,5.266,5.522c0,3.249-1.864,5.589-5.266,5.589c-3.447,0-5.264-2.293-5.264-5.589
			C53.963,43.941,55.812,41.712,59.227,41.712"/>
		<path clip-path="url(#SVGID_2_)" fill="#FFFFFF" d="M68.696,46.48h0.706c1.061,0,2.279-0.155,2.279-1.491
			c0-1.294-1.202-1.4-2.279-1.4h-0.706V46.48z M66.538,41.895h2.325c2.311,0,5.068-0.075,5.068,2.908
			c0,1.265-0.851,2.312-2.22,2.495v0.031c0.583,0.044,0.924,0.631,1.145,1.107l1.718,4.204h-2.396l-1.295-3.355
			c-0.31-0.802-0.585-1.111-1.496-1.111h-0.69v4.467h-2.158V41.895z"/>
		<path clip-path="url(#SVGID_2_)" fill="#FFFFFF" d="M87.164,43.866c-0.675-0.294-1.428-0.464-2.182-0.464
			c-0.742,0-1.698,0.325-1.698,1.495c0,1.86,4.713,1.075,4.713,4.677c0,2.356-1.864,3.253-4.03,3.253
			c-1.174,0-1.698-0.154-2.757-0.42l0.202-1.94c0.737,0.401,1.579,0.667,2.428,0.667c0.817,0,1.908-0.421,1.908-1.389
			c0-2.047-4.709-1.202-4.709-4.756c0-2.404,1.86-3.277,3.753-3.277c0.928,0,1.789,0.123,2.57,0.381L87.164,43.866z"/>
		<polygon clip-path="url(#SVGID_2_)" fill="#FFFFFF" points="89.98,41.895 96.327,41.895 96.327,43.589 92.139,43.589 
			92.139,46.238 95.971,46.238 95.971,47.933 92.139,47.933 92.139,50.947 96.359,50.947 96.359,52.641 89.98,52.641 		"/>
		<path clip-path="url(#SVGID_2_)" fill="#FFFFFF" d="M100.778,46.48h0.706c1.063,0,2.277-0.155,2.277-1.491
			c0-1.294-1.202-1.4-2.277-1.4h-0.706V46.48z M98.62,41.895h2.325c2.309,0,5.062-0.075,5.062,2.908
			c0,1.265-0.849,2.312-2.214,2.495v0.031c0.583,0.044,0.925,0.631,1.139,1.107l1.726,4.204h-2.404l-1.293-3.355
			c-0.31-0.802-0.583-1.111-1.491-1.111h-0.69v4.467H98.62V41.895z"/>
		<polygon clip-path="url(#SVGID_2_)" fill="#FFFFFF" points="107.149,41.895 109.458,41.895 112.215,50.332 112.242,50.332 
			114.972,41.895 117.106,41.895 113.488,52.641 110.847,52.641 		"/>
		<rect x="118.582" y="41.895" clip-path="url(#SVGID_2_)" fill="#FFFFFF" width="2.158" height="10.746"/>
		<path clip-path="url(#SVGID_2_)" fill="#FFFFFF" d="M131.133,52.486c-0.785,0.187-1.634,0.341-2.451,0.341
			c-3.476,0-5.895-1.745-5.895-5.375c0-3.682,2.249-5.744,5.895-5.744c0.714,0,1.65,0.143,2.436,0.448l-0.15,1.813
			c-0.821-0.457-1.556-0.567-2.325-0.567c-2.218,0-3.605,1.693-3.605,3.896c0,2.186,1.356,3.836,3.646,3.836
			c0.849,0,1.849-0.187,2.356-0.448L131.133,52.486z"/>
		<polygon clip-path="url(#SVGID_2_)" fill="#FFFFFF" points="132.981,41.895 139.32,41.895 139.32,43.589 135.136,43.589 
			135.136,46.238 138.968,46.238 138.968,47.933 135.136,47.933 135.136,50.947 139.353,50.947 139.353,52.641 132.981,52.641 		"/>
		<path clip-path="url(#SVGID_2_)" fill="#FFFFFF" d="M147.342,43.866c-0.675-0.294-1.428-0.464-2.182-0.464
			c-0.738,0-1.694,0.325-1.694,1.495c0,1.86,4.709,1.075,4.709,4.677c0,2.356-1.864,3.253-4.03,3.253
			c-1.17,0-1.694-0.154-2.761-0.42l0.198-1.94c0.741,0.401,1.591,0.667,2.436,0.667c0.817,0,1.912-0.421,1.912-1.389
			c0-2.047-4.713-1.202-4.713-4.756c0-2.404,1.864-3.277,3.753-3.277c0.928,0,1.793,0.123,2.574,0.381L147.342,43.866z"/>
		<path clip-path="url(#SVGID_2_)" fill="#FFFFFF" d="M89.909,21.778c0-1.269,0.016-2.622,0.056-4.01
			c0.079-2.471,1.285-3.443,4.125-3.594c1.206-0.067,2.876-0.023,4.364,0c3.181,0.052,4.657,1.071,4.657,3.761
			c0,3.265-1.984,3.729-5.142,3.82C94.959,21.842,91.615,21.806,89.909,21.778 M101.242,24.71c5.471-0.19,8.323-1.86,8.323-6.815
			c0-5.085-3.424-6.835-8.799-6.986c-2.733-0.075-4.967-0.067-7.724,0c-7.347,0.183-9.497,1.94-9.663,7.371
			c-0.092,3.094-0.056,4.495,0,8.307c0.114,7.934,5.204,8.112,15.681,8.112c4.205,0,9.191-0.333,9.191-0.333v-3.511
			c0,0-4.688,0.579-9.1,0.567c-6.407-0.012-9.116-0.206-9.188-4.407c-0.008-0.654-0.024-1.428-0.036-2.277
			C92.154,24.777,97.145,24.853,101.242,24.71 M142.288,21.223H135.1c-2.809,0-4.673-0.29-4.673-3.618
			c0-4.003,4.665-3.566,8.497-3.566c2.222,0,6.978,0.369,8.684,0.615v-3.447c-3.717-0.313-10.413-0.599-15.376-0.214
			c-5.367,0.413-8.314,1.904-8.314,6.728c0,4.971,2.837,6.768,7.835,6.768h6.76c3.376,0,4.026,1.139,4.026,3.451
			c0,3.13-1.845,3.364-9.549,3.364c-3.011,0-5.275-0.229-8.513-0.71v3.472c3.015,0.281,8.949,0.535,14.638,0.412
			c6.085-0.127,9.782-1.979,9.782-6.871C148.896,23.278,147.242,21.223,142.288,21.223 M113.346,8.025h6.379
			c0.023-1.468,0.055-2.975,0.091-4.51h-6.569C113.286,5.03,113.321,6.542,113.346,8.025 M119.681,11.036h-6.288
			c0.151,12.849-0.146,23.396-0.146,23.396h6.569C119.815,34.433,119.518,24.678,119.681,11.036 M73.74,31.271
			c-8.561-0.092-10.076-2.281-10.076-8.723c0-8.156,4.435-8.461,10.191-8.461c2.733,0,6.795,0.345,6.795,0.345v-3.316
			c-3.138-0.179-7.331-0.33-11.474-0.214C60.078,11.163,56.92,15.63,56.92,22.747c0,11.742,7.791,11.607,15.616,11.734
			c2.981,0.048,5.032-0.027,8.439-0.226v-3.364C79.429,31.033,76.231,31.295,73.74,31.271 M16.811,31.271
			c-8.559-0.092-10.07-2.281-10.07-8.723c0-8.156,4.437-8.461,10.193-8.461c2.733,0,6.792,0.345,6.792,0.345v-3.316
			c-3.14-0.179-7.329-0.33-11.47-0.214C3.155,11.163,0,15.63,0,22.747C0,34.488,7.791,34.354,15.613,34.48
			c2.981,0.048,5.03-0.027,8.434-0.226v-3.364C22.508,31.033,19.302,31.295,16.811,31.271 M46.595,27.848
			c-0.074,2.464-1.279,3.439-4.118,3.59c-1.208,0.063-2.876,0.028-4.368,0c-3.186-0.06-4.655-1.078-4.655-3.76
			c0-3.269,1.981-3.729,5.143-3.824c3.005-0.087,6.353-0.047,8.059-0.023C46.656,25.103,46.64,26.459,46.595,27.848 M37.719,10.909
			c-3.086,0-8.973,0.333-8.973,0.333v3.411c0,0,5.317-0.531,8.884-0.531c6.605,0,8.898,0.206,8.965,4.411
			c0.012,0.663,0.03,1.456,0.042,2.34c-2.221-0.047-7.214-0.115-11.313,0.028c-5.466,0.19-8.327,1.853-8.327,6.815
			c0,5.086,3.428,6.831,8.803,6.981c2.733,0.076,4.966,0.063,7.722,0c7.349-0.178,9.497-1.936,9.663-7.37
			c0.093-3.094,0.054-4.495,0-8.307C53.07,11.092,48.195,10.909,37.719,10.909"/>
	</g>
</g>
</svg>
