<svg width="141" height="93" viewBox="0 0 141 93" fill="none" xmlns="http://www.w3.org/2000/svg">
<path fill-rule="evenodd" clip-rule="evenodd" d="M41.9366 0.0471191H0.5V25.8516C3.3592 25.8516 5.67731 28.1599 5.67957 31.0083L5.67958 31.0124L5.67957 31.0166C5.67731 33.865 3.35921 36.1733 0.5 36.1733V56.8169C3.3606 56.8169 5.67958 59.1275 5.67958 61.9778H10.8592C10.8592 60.5526 12.0186 59.3973 13.4489 59.3973H18.6285C20.0588 59.3973 21.2183 60.5526 21.2183 61.9778H26.3979C26.3979 60.5526 27.5574 59.3973 28.9877 59.3973H34.1673C35.5976 59.3973 36.757 60.5526 36.757 61.9778H41.9366C41.9366 59.1275 44.2556 56.8169 47.1162 56.8169C49.9768 56.8169 52.2958 59.1275 52.2958 61.9778C52.2958 64.828 49.9768 67.1387 47.1162 67.1387V72.2995C48.5465 72.2995 49.706 73.4549 49.706 74.88V80.0409C49.706 81.466 48.5465 82.6213 47.1162 82.6213V87.7822C49.9768 87.7822 52.2958 90.0928 52.2958 92.9431H88.5528C88.5528 90.0928 90.8718 87.7822 93.7324 87.7822C96.593 87.7822 98.912 90.0928 98.912 92.9431H140.349V67.1387C137.488 67.1387 135.169 64.828 135.169 61.9778C135.169 59.1275 137.488 56.8169 140.349 56.8169V36.1733C137.488 36.1733 135.169 33.8627 135.169 31.0124C135.169 28.1622 137.488 25.8516 140.349 25.8516V0.0471191H98.912C98.912 2.8974 96.593 5.20801 93.7324 5.20801C90.8718 5.20801 88.5528 2.8974 88.5528 0.0471191H52.2958C52.2958 2.8974 49.9768 5.20801 47.1162 5.20801C44.2556 5.20801 41.9366 2.8974 41.9366 0.0471191ZM93.7324 20.6907C92.3021 20.6907 91.1426 19.5354 91.1426 18.1102V12.9493C91.1426 11.5242 92.3021 10.3689 93.7324 10.3689C95.1627 10.3689 96.3222 11.5242 96.3222 12.9493V18.1102C96.3222 19.5354 95.1627 20.6907 93.7324 20.6907ZM88.5528 31.0124C88.5528 28.1622 90.8718 25.8516 93.7324 25.8516C96.593 25.8516 98.912 28.1622 98.912 31.0124C98.912 33.8627 96.593 36.1733 93.7324 36.1733C90.8718 36.1733 88.5528 33.8627 88.5528 31.0124ZM93.7324 51.656C92.3021 51.656 91.1426 50.5007 91.1426 49.0755V43.9147C91.1426 42.4895 92.3021 41.3342 93.7324 41.3342C95.1627 41.3342 96.3222 42.4895 96.3222 43.9147V49.0755C96.3222 50.5007 95.1627 51.656 93.7324 51.656ZM93.7324 67.1387C90.8718 67.1387 88.5528 64.828 88.5528 61.9778C88.5528 59.1275 90.8718 56.8169 93.7324 56.8169C96.593 56.8169 98.912 59.1275 98.912 61.9778C98.912 64.828 96.593 67.1387 93.7324 67.1387ZM93.7324 82.6213C92.3021 82.6213 91.1426 81.466 91.1426 80.0409V74.88C91.1426 73.4549 92.3021 72.2995 93.7324 72.2995C95.1627 72.2995 96.3222 73.4549 96.3222 74.88V80.0409C96.3222 81.466 95.1627 82.6213 93.7324 82.6213ZM44.5264 18.1102C44.5264 19.5354 45.6859 20.6907 47.1162 20.6907C48.5465 20.6907 49.706 19.5354 49.706 18.1102V12.9493C49.706 11.5242 48.5465 10.3689 47.1162 10.3689C45.6859 10.3689 44.5264 11.5242 44.5264 12.9493V18.1102ZM41.9366 31.0124C41.9366 33.8627 44.2556 36.1733 47.1162 36.1733C49.9768 36.1733 52.2958 33.8627 52.2958 31.0124C52.2958 28.1622 49.9768 25.8516 47.1162 25.8516C44.2556 25.8516 41.9366 28.1622 41.9366 31.0124ZM44.5264 49.0755C44.5264 50.5007 45.6859 51.656 47.1162 51.656C48.5465 51.656 49.706 50.5007 49.706 49.0755V43.9147C49.706 42.4895 48.5465 41.3342 47.1162 41.3342C45.6859 41.3342 44.5264 42.4895 44.5264 43.9147V49.0755ZM65.2447 64.5582C66.675 64.5582 67.8345 63.4029 67.8345 61.9778C67.8345 60.5526 66.675 59.3973 65.2447 59.3973H60.0652C58.6349 59.3973 57.4754 60.5526 57.4754 61.9778C57.4754 63.4029 58.6349 64.5582 60.0652 64.5582H65.2447ZM83.3733 61.9778C83.3733 63.4029 82.2138 64.5582 80.7835 64.5582H75.6039C74.1736 64.5582 73.0141 63.4029 73.0141 61.9778C73.0141 60.5526 74.1736 59.3973 75.6039 59.3973H80.7835C82.2138 59.3973 83.3733 60.5526 83.3733 61.9778ZM114.451 61.9778C114.451 63.4029 113.291 64.5582 111.861 64.5582H106.681C105.251 64.5582 104.092 63.4029 104.092 61.9778C104.092 60.5526 105.251 59.3973 106.681 59.3973H111.861C113.291 59.3973 114.451 60.5526 114.451 61.9778ZM127.4 64.5582C128.83 64.5582 129.989 63.4029 129.989 61.9778C129.989 60.5526 128.83 59.3973 127.4 59.3973H122.22C120.79 59.3973 119.63 60.5526 119.63 61.9778C119.63 63.4029 120.79 64.5582 122.22 64.5582H127.4ZM21.2183 31.0124C21.2183 32.4376 20.0588 33.5929 18.6285 33.5929H13.4489C12.0186 33.5929 10.8592 32.4376 10.8592 31.0124C10.8592 29.5873 12.0186 28.432 13.4489 28.432H18.6285C20.0588 28.432 21.2183 29.5873 21.2183 31.0124ZM34.1673 33.5929C35.5976 33.5929 36.757 32.4376 36.757 31.0124C36.757 29.5873 35.5976 28.432 34.1673 28.432H28.9877C27.5574 28.432 26.3979 29.5873 26.3979 31.0124C26.3979 32.4376 27.5574 33.5929 28.9877 33.5929H34.1673ZM65.2447 33.5929C66.675 33.5929 67.8345 32.4376 67.8345 31.0124C67.8345 29.5873 66.675 28.432 65.2447 28.432H60.0652C58.6349 28.432 57.4754 29.5873 57.4754 31.0124C57.4754 32.4376 58.6349 33.5929 60.0652 33.5929H65.2447ZM83.3733 31.0124C83.3733 32.4376 82.2138 33.5929 80.7835 33.5929H75.6039C74.1736 33.5929 73.0141 32.4376 73.0141 31.0124C73.0141 29.5873 74.1736 28.432 75.6039 28.432H80.7835C82.2138 28.432 83.3733 29.5873 83.3733 31.0124ZM114.451 31.0124C114.451 32.4376 113.291 33.5929 111.861 33.5929H106.681C105.251 33.5929 104.092 32.4376 104.092 31.0124C104.092 29.5873 105.251 28.432 106.681 28.432H111.861C113.291 28.432 114.451 29.5873 114.451 31.0124ZM127.4 33.5929C128.83 33.5929 129.989 32.4376 129.989 31.0124C129.989 29.5873 128.83 28.432 127.4 28.432H122.22C120.79 28.432 119.63 29.5873 119.63 31.0124C119.63 32.4376 120.79 33.5929 122.22 33.5929H127.4Z" fill="#236476"/>
<path d="M140.349 25.8516V0.0471191H98.912C98.912 2.8974 96.593 5.20801 93.7324 5.20801V10.3689C95.1627 10.3689 96.3222 11.5242 96.3222 12.9493V18.1102C96.3222 19.5354 95.1627 20.6907 93.7324 20.6907V25.8516C96.593 25.8516 98.912 28.1622 98.912 31.0124H104.092C104.092 29.5873 105.251 28.432 106.681 28.432H111.861C113.291 28.432 114.451 29.5873 114.451 31.0124H119.63C119.63 29.5873 120.79 28.432 122.22 28.432H127.4C128.83 28.432 129.989 29.5873 129.989 31.0124H135.169C135.169 28.1622 137.488 25.8516 140.349 25.8516Z" fill="#4A9F6D"/>
<path d="M88.5528 31.0124C88.5528 33.8627 90.8718 36.1733 93.7324 36.1733V41.3342C92.3021 41.3342 91.1426 42.4895 91.1426 43.9147V49.0755C91.1426 50.5007 92.3021 51.656 93.7324 51.656V56.8169C90.8718 56.8169 88.5528 59.1275 88.5528 61.9778H83.3733C83.3733 60.5526 82.2138 59.3973 80.7835 59.3973H75.6039C74.1736 59.3973 73.0141 60.5526 73.0141 61.9778H67.8345C67.8345 60.5526 66.675 59.3973 65.2447 59.3973H60.0652C58.6349 59.3973 57.4754 60.5526 57.4754 61.9778H52.2958C52.2958 59.1275 49.9768 56.8169 47.1162 56.8169V51.656C48.5465 51.656 49.706 50.5007 49.706 49.0755V43.9147C49.706 42.4895 48.5465 41.3342 47.1162 41.3342V36.1733C49.9768 36.1733 52.2958 33.8627 52.2958 31.0124H57.4754C57.4754 32.4376 58.6349 33.5929 60.0652 33.5929H65.2447C66.675 33.5929 67.8345 32.4376 67.8345 31.0124H73.0141C73.0141 32.4376 74.1736 33.5929 75.6039 33.5929H80.7835C82.2138 33.5929 83.3733 32.4376 83.3733 31.0124H88.5528Z" fill="#FDC500"/>
</svg>
